<svg xmlns="http://www.w3.org/2000/svg" viewBox="0 0 64 64" fill="none">
  <defs>
    <linearGradient id="g" x1="32" y1="2" x2="32" y2="62" gradientUnits="userSpaceOnUse">
      <stop stop-color="#ff6b6b"/>
      <stop offset="1" stop-color="#e63946"/>
    </linearGradient>
  </defs>
  <path d="M32 2C19.297 2 9 12.297 9 25c0 15.5 19.2 35.2 21.8 37.8a3 3 0 0 0 4.4 0C36.8 60.2 55 40.5 55 25 55 12.297 44.703 2 32 2Z" fill="url(#g)"/>
  <circle cx="32" cy="25" r="14" fill="#fff"/>
  <g fill="#e63946">
    <rect x="22" y="24" width="20" height="6" rx="1.5"/>
    <rect x="22" y="21" width="6" height="3" rx="1"/>
    <path d="M20 32h24v2a2 2 0 0 1-2 2H22a2 2 0 0 1-2-2v-2Z"/>
  </g>
</svg>
